<svg width="20" height="20" viewBox="0 0 20 20" fill="none" xmlns="http://www.w3.org/2000/svg">
<g clip-path="url(#clip0_70_3052)">
<path d="M5.78126 3.75311C6.36752 3.75311 6.89751 3.80186 7.38314 3.90936C7.86189 4.01686 8.27501 4.18311 8.62002 4.41749C8.96189 4.65186 9.22876 4.95811 9.42064 5.35186C9.60627 5.74249 9.70376 6.22749 9.70376 6.79374C9.70376 7.40874 9.56064 7.92686 9.28064 8.34311C8.99751 8.75999 8.58377 9.09186 8.02751 9.35874C8.78251 9.57686 9.34251 9.95749 9.71377 10.5012C10.0881 11.0512 10.2669 11.7087 10.2669 12.4675C10.2669 13.0925 10.1594 13.6262 9.92501 14.0756C9.69998 14.5246 9.36793 14.9114 8.95814 15.2019C8.55752 15.4919 8.08251 15.7 7.56814 15.84C7.0491 15.9801 6.51388 16.0513 5.97626 16.0519H-0.000610352V3.75999H5.78064L5.78126 3.75311ZM14.1181 13.8869C14.4825 14.245 15.01 14.4237 15.6969 14.4237C16.1881 14.4237 16.6119 14.3 16.9694 14.0494C17.3244 13.8087 17.5356 13.5412 17.6206 13.2681H19.7756C19.4406 14.3325 18.9031 15.1006 18.1938 15.56C17.4844 16.0256 16.625 16.25 15.6288 16.25C14.9288 16.25 14.3069 16.1425 13.7344 15.9181C13.1953 15.7056 12.7072 15.3816 12.3019 14.9675C11.9144 14.5606 11.615 14.0687 11.4031 13.4931C11.1913 12.9175 11.0906 12.2856 11.0906 11.6019C11.0906 10.9312 11.2044 10.3194 11.4294 9.74311C11.6387 9.18979 11.9551 8.68323 12.3606 8.25249C12.7738 7.82624 13.2463 7.50686 13.8094 7.25624C14.3694 7.00561 14.975 6.89499 15.6581 6.89499C16.4169 6.89499 17.0675 7.03186 17.6406 7.33124C18.1852 7.60845 18.6587 8.00729 19.0244 8.49686C19.3925 8.98499 19.6494 9.54811 19.8088 10.1831C19.9681 10.8081 20.0169 11.4656 19.9844 12.1656H13.575C13.575 12.8656 13.8094 13.5262 14.1675 13.8844L14.0994 13.9106L14.1181 13.8869ZM5.58251 13.9287C5.84626 13.9287 6.10002 13.9025 6.33751 13.8506C6.56267 13.8064 6.77786 13.7215 6.97252 13.6C7.14814 13.4894 7.29814 13.3262 7.40876 13.115C7.51626 12.9162 7.56501 12.64 7.56501 12.3144C7.56501 11.6894 7.38251 11.24 7.03126 10.9669C6.67314 10.7 6.20751 10.5662 5.62501 10.5662H2.69876V13.9419H5.58314V13.9156L5.58251 13.9287ZM16.9238 9.22186C16.6275 8.89936 16.1394 8.72686 15.54 8.72686C15.1525 8.72686 14.8306 8.78874 14.57 8.92561C14.3306 9.04253 14.1194 9.21016 13.9513 9.41686C13.8015 9.60096 13.6907 9.8136 13.6256 10.0419C13.5676 10.2348 13.5305 10.4335 13.515 10.6344H17.4831C17.4244 10.0094 17.2063 9.55061 16.9169 9.22499V9.23499L16.9238 9.22186ZM5.43314 8.70749C5.91189 8.70749 6.30876 8.59686 6.62126 8.36561C6.93376 8.14124 7.08376 7.76311 7.08376 7.24936C7.08376 6.96311 7.02501 6.72874 6.93376 6.54624C6.83245 6.37167 6.68916 6.22516 6.51689 6.11999C6.33082 6.01225 6.12664 5.93938 5.91439 5.90499C5.68367 5.86134 5.44919 5.84061 5.21439 5.84311H2.69189V8.70749H5.43314ZM13.0144 4.57686H17.9881V5.78749H13.0144V4.56686V4.57686Z" fill="#D62828"/>
</g>
<defs>
<clipPath id="clip0_70_3052">
<rect width="20" height="20" fill="white"/>
</clipPath>
</defs>
</svg>
