<svg width="20" height="20" viewBox="0 0 20 20" fill="none" xmlns="http://www.w3.org/2000/svg">
<path d="M10.0007 0C7.28258 0 6.94383 0.013125 5.88008 0.058125C4.81195 0.110625 4.08945 0.27625 3.45195 0.52375C2.78474 0.775638 2.18049 1.17001 1.68133 1.67938C1.17054 2.17737 0.775951 2.78196 0.525703 3.45C0.278203 4.0875 0.112578 4.81 0.0600781 5.87812C0.0119531 6.9425 0.00195312 7.28063 0.00195312 9.99875C0.00195312 12.7169 0.0150781 13.0556 0.0600781 14.1194C0.112578 15.1844 0.278203 15.91 0.525703 16.5475C0.777591 17.2147 1.17196 17.819 1.68133 18.3181C2.17933 18.8289 2.78391 19.2235 3.45195 19.4738C4.08945 19.7181 4.81508 19.8869 5.88008 19.9394C6.94445 19.9875 7.28258 19.9975 10.0007 19.9975C12.7188 19.9975 13.0576 19.9844 14.1213 19.9394C15.1863 19.8869 15.912 19.7175 16.5495 19.4738C17.2167 19.2219 17.8209 18.8275 18.3201 18.3181C18.8315 17.8207 19.2262 17.2159 19.4757 16.5475C19.7201 15.91 19.8888 15.1844 19.9413 14.1194C19.9895 13.055 19.9995 12.7169 19.9995 9.99875C19.9995 7.28063 19.9863 6.94187 19.9413 5.87812C19.8888 4.81312 19.7195 4.08375 19.4757 3.45C19.2238 2.78279 18.8294 2.17854 18.3201 1.67938C17.8226 1.16793 17.2179 0.773237 16.5495 0.52375C15.912 0.27625 15.1863 0.110625 14.1213 0.058125C13.057 0.01 12.7188 0 10.0007 0ZM10.0007 1.8C12.6701 1.8 12.9888 1.81313 14.0438 1.85812C15.017 1.90375 15.547 2.06625 15.8988 2.20375C16.3338 2.36433 16.7276 2.61991 17.0513 2.95187C17.3827 3.27427 17.6374 3.66709 17.7963 4.10125C17.9338 4.45312 18.0963 4.98312 18.142 5.95625C18.187 7.01125 18.2001 7.33062 18.2001 9.99937C18.2001 12.6681 18.187 12.9875 18.1382 14.0425C18.0857 15.0156 17.9232 15.5456 17.7863 15.8975C17.597 16.3669 17.3857 16.695 17.037 17.05C16.7121 17.3799 16.3186 17.6342 15.8845 17.795C15.537 17.9325 14.9995 18.095 14.0226 18.1406C12.962 18.1856 12.6495 18.1987 9.9732 18.1987C7.29695 18.1987 6.98508 18.1856 5.9232 18.1369C4.95008 18.0844 4.4132 17.9219 4.06133 17.785C3.58633 17.5956 3.2607 17.3844 2.91195 17.0356C2.56008 16.6838 2.33633 16.3487 2.16383 15.8831C2.02383 15.5356 1.86383 14.9981 1.81195 14.0212C1.77633 12.9731 1.75945 12.6481 1.75945 9.98438C1.75945 7.32188 1.77633 6.99625 1.81195 5.935C1.86383 4.95813 2.02383 4.42188 2.16383 4.07312C2.33633 3.5975 2.5607 3.2725 2.91195 2.92062C3.26008 2.5725 3.58633 2.3475 4.06133 2.17125C4.4132 2.03437 4.93695 1.87188 5.91383 1.82313C6.97445 1.785 7.28695 1.77125 9.95945 1.77125L10.0007 1.8ZM10.0007 4.86688C9.32654 4.86663 8.65894 4.99923 8.03605 5.25711C7.41316 5.51499 6.84719 5.89308 6.37049 6.36978C5.89378 6.84649 5.51569 7.41246 5.25781 8.03535C4.99994 8.65824 4.86733 9.32584 4.86758 10C4.86733 10.6742 4.99994 11.3418 5.25781 11.9647C5.51569 12.5875 5.89378 13.1535 6.37049 13.6302C6.84719 14.1069 7.41316 14.485 8.03605 14.7429C8.65894 15.0008 9.32654 15.1334 10.0007 15.1331C10.6749 15.1334 11.3425 15.0008 11.9654 14.7429C12.5882 14.485 13.1542 14.1069 13.6309 13.6302C14.1076 13.1535 14.4857 12.5875 14.7436 11.9647C15.0015 11.3418 15.1341 10.6742 15.1338 10C15.1341 9.32584 15.0015 8.65824 14.7436 8.03535C14.4857 7.41246 14.1076 6.84649 13.6309 6.36978C13.1542 5.89308 12.5882 5.51499 11.9654 5.25711C11.3425 4.99923 10.6749 4.86663 10.0007 4.86688ZM10.0007 13.3331C8.1582 13.3331 6.66758 11.8425 6.66758 10C6.66758 8.1575 8.1582 6.66687 10.0007 6.66687C11.8432 6.66687 13.3338 8.1575 13.3338 10C13.3338 11.8425 11.8432 13.3331 10.0007 13.3331ZM16.5407 4.66188C16.5404 4.98042 16.4136 5.2858 16.1882 5.51092C15.9629 5.73605 15.6574 5.8625 15.3388 5.8625C15.1813 5.8625 15.0254 5.83148 14.8798 5.7712C14.7343 5.71093 14.6021 5.62258 14.4907 5.51121C14.3794 5.39984 14.291 5.26762 14.2308 5.12211C14.1705 4.97659 14.1395 4.82063 14.1395 4.66313C14.1395 4.50562 14.1705 4.34966 14.2308 4.20414C14.291 4.05863 14.3794 3.92641 14.4907 3.81504C14.6021 3.70367 14.7343 3.61532 14.8798 3.55505C15.0254 3.49477 15.1813 3.46375 15.3388 3.46375C15.9995 3.46375 16.5407 4.00125 16.5407 4.66188Z" fill="#D62828"/>
</svg>
