<svg width="18" height="19" viewBox="0 0 18 19" fill="none" xmlns="http://www.w3.org/2000/svg">
<path d="M3.75 10.25H12.645L9.9225 13.52C9.85946 13.5958 9.81198 13.6834 9.78277 13.7775C9.75356 13.8717 9.74318 13.9707 9.75223 14.0689C9.77052 14.2673 9.86684 14.4502 10.02 14.5775C10.1732 14.7048 10.3706 14.7661 10.5689 14.7478C10.7673 14.7295 10.9502 14.6332 11.0775 14.48L14.8275 9.98C14.8527 9.94421 14.8753 9.90661 14.895 9.8675C14.895 9.83 14.9325 9.8075 14.9475 9.77C14.9815 9.68401 14.9993 9.59247 15 9.5C14.9993 9.40754 14.9815 9.316 14.9475 9.23C14.9475 9.1925 14.91 9.17 14.895 9.1325C14.8753 9.0934 14.8527 9.0558 14.8275 9.02L11.0775 4.52C11.007 4.43534 10.9187 4.36725 10.8189 4.32059C10.7191 4.27392 10.6102 4.24982 10.5 4.25C10.3248 4.24966 10.1549 4.31069 10.02 4.4225C9.94405 4.48546 9.88128 4.56279 9.83526 4.65005C9.78925 4.73731 9.7609 4.83279 9.75185 4.93102C9.74279 5.02926 9.7532 5.12831 9.78248 5.22251C9.81177 5.31672 9.85935 5.40422 9.9225 5.48L12.645 8.75H3.75C3.55109 8.75 3.36032 8.82902 3.21967 8.96967C3.07902 9.11032 3 9.30109 3 9.5C3 9.69892 3.07902 9.88968 3.21967 10.0303C3.36032 10.171 3.55109 10.25 3.75 10.25Z" fill="#D62828"/>
</svg>
