<svg xmlns="http://www.w3.org/2000/svg" version="1.1" xmlns:xlink="http://www.w3.org/1999/xlink" xmlns:svgjs="http://svgjs.com/svgjs" width="524" height="524"><svg width="524" height="524" viewBox="0 0 524 524" fill="none" xmlns="http://www.w3.org/2000/svg">
<g clip-path="url(#clip0_103_9)">
<path d="M338.04 119.41C335.27 118.67 332.55 117.99 329.89 117.36L318.92 115.56C316.51 115.13 314.08 114.74 311.65 114.38C308.22 113.88 304.77 113.46 301.34 113.13C301.17 113.1 301.02 113.09 300.88 113.08C293.5 112.36 285.98 112 278.53 112C151.84 112 48.78 215.07 48.78 341.75C48.78 345.13 48.86 348.64 49.01 352.17L55.87 382.49L70.05 383.41L74.95 355.48C75.1 354.64 75.3 353.74 75.54 352.83L76.31 349.98L76.24 347C76.2 345.29 76.18 343.53 76.18 341.75C76.18 293.69 93.4 247.06 124.67 210.47C155.61 174.27 198.3 150.02 244.89 142.2C255.84 140.35 267.16 139.41 278.53 139.41C281.18 139.41 283.83 139.46 286.47 139.57C295.64 139.92 304.73 140.88 313.6 142.43L319.1 143.4L324.17 144.29L326.35 142.11L344.89 123.57L345.36 123.49V121.45C342.98 120.75 340.54 120.07 338.04 119.41V119.41Z" fill="#F77F00"></path>
<path d="M167.77 350.99C167.77 384.34 140.74 411.38 107.38 411.38C84.2 411.38 64.06 398.3 53.95 379.13C53.14 377.63 52.41 376.08 51.74 374.5C51.74 374.49 51.73 374.47 51.73 374.46C48.68 367.24 47 359.3 47 350.99C47 347.39 47.31 343.88 47.92 340.45V340.42C48.22 338.71 48.6 337.02 49.04 335.36C55.92 309.57 79.44 290.59 107.39 290.59C115.71 290.59 123.62 292.26 130.82 295.31C152.54 304.45 167.77 325.94 167.77 350.99V350.99Z" fill="#729EA1"></path>
<path d="M345.38 350.78C345.38 384.13 318.35 411.17 284.99 411.17C261.81 411.17 241.67 398.09 231.56 378.92C230.75 377.42 230.02 375.87 229.35 374.29C229.35 374.28 229.34 374.26 229.34 374.25C226.29 367.03 224.61 359.09 224.61 350.78C224.61 347.18 224.92 343.67 225.53 340.24V340.21C225.83 338.5 226.21 336.81 226.65 335.15C233.53 309.36 257.05 290.38 285 290.38C293.32 290.38 301.23 292.05 308.43 295.1C330.15 304.24 345.38 325.73 345.38 350.78Z" fill="#F77F00"></path>
<path d="M224.61 356.45V130.58L275.69 117.36L345.36 121.45L345.38 356.45H224.61Z" fill="#F77F00"></path>
<path d="M345.36 290.39H341.7V301.92H345.36V290.39Z" fill="#F7F2DC"></path>
<path d="M415.46 316.38H415.68C420.32 316.38 424.8 317.28 429.03 319.06C441.81 324.44 450.06 336.89 450.06 350.78C450.06 369.74 434.64 385.16 415.68 385.16L312.83 385.14V316.38H415.23C415.3 316.38 415.38 316.38 415.45 316.38H415.46ZM415.67 290.38C415.3 290.38 414.93 290.38 414.56 290.38H286.82V411.13L415.67 411.15C449.02 411.15 476.05 384.11 476.05 350.77C476.05 325.71 460.82 304.23 439.1 295.09C431.89 292.04 423.98 290.37 415.67 290.37V290.38Z" fill="#F77F00"></path>
</g>
<defs>
<clipPath id="SvgjsClipPath1000">
<rect width="429.06" height="299.37" fill="white" transform="translate(47 112)"></rect>
</clipPath>
</defs>
</svg><style>@media (prefers-color-scheme: light) { :root { filter: none; } }
</style></svg>