<svg width="58" height="40" viewBox="0 0 58 40" fill="none" xmlns="http://www.w3.org/2000/svg">
<g clip-path="url(#clip0_60_3021)">
<path d="M38.887 0.990079C38.5169 0.891205 38.1535 0.800347 37.798 0.716171L36.3323 0.475666C36.0103 0.418212 35.6856 0.366102 35.3609 0.318001C34.9026 0.251194 34.4417 0.195076 33.9834 0.150984C33.9607 0.146975 33.9406 0.145639 33.9219 0.144303C32.9358 0.048101 31.9311 0 30.9356 0C14.0081 0 0.237839 13.7716 0.237839 30.6978C0.237839 31.1494 0.248528 31.6184 0.26857 32.0901L1.18516 36.1412L3.07981 36.2642L3.73451 32.5323C3.75456 32.4201 3.78128 32.2998 3.81335 32.1782L3.91623 31.7974L3.90688 31.3993C3.90153 31.1708 3.89886 30.9356 3.89886 30.6978C3.89886 24.2763 6.19969 18.0459 10.3778 13.157C14.5118 8.32014 20.2158 5.08 26.4409 4.03514C27.9039 3.78795 29.4164 3.66236 30.9356 3.66236C31.2897 3.66236 31.6438 3.66904 31.9965 3.68374C33.2218 3.7305 34.4363 3.85877 35.6215 4.06587L36.3563 4.19548L37.0338 4.31439L37.325 4.02312L39.8023 1.54591L39.865 1.53522V1.26265C39.547 1.16912 39.221 1.07826 38.887 0.990079V0.990079Z" fill="#F77F00"/>
<path d="M16.1366 31.9324C16.1366 36.3884 12.525 40.0013 8.06761 40.0013C4.97044 40.0013 2.27945 38.2537 0.928617 35.6923C0.820389 35.4919 0.722851 35.2848 0.63333 35.0737C0.63333 35.0723 0.631994 35.0697 0.631994 35.0683C0.224471 34.1036 0 33.0427 0 31.9324C0 31.4514 0.0414203 30.9824 0.122925 30.5241V30.5201C0.163009 30.2916 0.213782 30.0658 0.272572 29.844C1.19184 26.3981 4.33443 23.8621 8.06894 23.8621C9.18061 23.8621 10.2375 24.0853 11.1995 24.4928C14.1016 25.714 16.1366 28.5854 16.1366 31.9324V31.9324Z" fill="#5E8B8E"/>
<path d="M39.8677 31.9043C39.8677 36.3604 36.2561 39.9733 31.7988 39.9733C28.7016 39.9733 26.0106 38.2256 24.6598 35.6642C24.5516 35.4638 24.454 35.2567 24.3645 35.0456C24.3645 35.0443 24.3632 35.0416 24.3632 35.0402C23.9556 34.0756 23.7312 33.0147 23.7312 31.9043C23.7312 31.4233 23.7726 30.9543 23.8541 30.496V30.492C23.8942 30.2635 23.945 30.0377 24.0037 29.8159C24.923 26.37 28.0656 23.834 31.8001 23.834C32.9118 23.834 33.9687 24.0572 34.9307 24.4647C37.8328 25.6859 39.8677 28.5573 39.8677 31.9043Z" fill="#F77F00"/>
<path d="M23.7312 32.6619V2.48256L30.5562 0.716187L39.865 1.26267L39.8677 32.6619H23.7312Z" fill="#F77F00"/>
<path d="M39.865 23.8354H39.376V25.376H39.865V23.8354Z" fill="#FFFDF3"/>
<path d="M49.2314 27.308H49.2608C49.8807 27.308 50.4793 27.4283 51.0445 27.6661C52.7521 28.3849 53.8544 30.0484 53.8544 31.9043C53.8544 34.4376 51.7941 36.498 49.2608 36.498L35.5186 36.4953V27.308H49.2007C49.21 27.308 49.2207 27.308 49.23 27.308H49.2314ZM49.2594 23.834C49.21 23.834 49.1606 23.834 49.1111 23.834H32.0433V39.9679L49.2594 39.9706C53.7155 39.9706 57.327 36.3577 57.327 31.903C57.327 28.5546 55.2921 25.6846 52.39 24.4634C51.4267 24.0558 50.3698 23.8327 49.2594 23.8327V23.834Z" fill="#F77F00"/>
</g>
<defs>
<clipPath id="clip0_60_3021">
<rect width="57.3284" height="40" fill="white"/>
</clipPath>
</defs>
</svg>
